<svg width="33" height="42" viewBox="0 0 33 42" fill="none" xmlns="http://www.w3.org/2000/svg">
<path opacity="0.1" d="M30.2298 39.3114L26.5311 34.2198L31.6228 30.5211C32.2635 30.0557 32.4075 29.147 31.9421 28.5062C31.4766 27.8655 30.568 27.7215 29.9272 28.187L24.8356 31.8856L21.1369 26.794C20.6714 26.1532 19.7628 26.0092 19.122 26.4747C18.4813 26.9402 18.3373 27.8488 18.8027 28.4896L22.5014 33.5812L17.4098 37.2799C16.769 37.7453 16.625 38.654 17.0905 39.2947C17.5559 39.9355 18.4646 40.0795 19.1053 39.614L24.197 35.9153L27.8957 41.007C28.3611 41.6477 29.2698 41.7917 29.9105 41.3263C30.5611 40.8624 30.7036 39.9636 30.2298 39.3114Z" fill="white"/>
<path opacity="0.1" d="M7.61921 6.84764L5.71576 4.22731L8.33608 2.32387C8.66583 2.08433 8.73993 1.6167 8.5004 1.28695C8.26086 0.957203 7.79324 0.8831 7.46349 1.12264L4.84316 3.0261L2.9397 0.405767C2.70017 0.0760188 2.23255 0.00191609 1.9028 0.241452C1.57305 0.480988 1.49894 0.948619 1.73848 1.27837L3.64194 3.89868L1.02161 5.80214C0.691864 6.04168 0.61776 6.50931 0.857296 6.83906C1.09683 7.16881 1.56446 7.24291 1.8942 7.00338L4.51453 5.09991L6.41799 7.72024C6.65753 8.04999 7.12515 8.1241 7.4549 7.88456C7.78973 7.64583 7.86303 7.18328 7.61921 6.84764Z" fill="white"/>
</svg>
