<svg width="88" height="120" viewBox="0 0 88 120" fill="none" xmlns="http://www.w3.org/2000/svg">
<path opacity="0.1" d="M85.2335 13.3144L81.5348 8.2227L86.6264 4.52404C87.2672 4.05859 87.4112 3.14992 86.9457 2.50918C86.4803 1.86843 85.5716 1.72444 84.9309 2.18989L79.8392 5.88857L76.1406 0.796917C75.6751 0.156171 74.7664 0.0121791 74.1257 0.47763C73.485 0.943081 73.341 1.85175 73.8064 2.4925L77.5051 7.58412L72.4134 11.2828C71.7727 11.7483 71.6287 12.6569 72.0942 13.2977C72.5596 13.9384 73.4683 14.0824 74.109 13.617L79.2006 9.91828L82.8993 15.0099C83.3648 15.6507 84.2734 15.7947 84.9142 15.3292C85.5648 14.8653 85.7072 13.9665 85.2335 13.3144Z" fill="white"/>
<path opacity="0.1" d="M28.3799 61.7539H85.1399V118.514H28.3799V61.7539Z" stroke="white" stroke-width="2" stroke-miterlimit="10"/>
<path opacity="0.1" d="M1.14441e-05 33.374H56.76V90.134H1.14441e-05V33.374Z" fill="white"/>
</svg>
