<svg width="528" height="838" viewBox="0 0 528 838" fill="none" xmlns="http://www.w3.org/2000/svg">
<path opacity="0.1" d="M164.233 13.3144L160.535 8.2227L165.626 4.52404C166.267 4.05859 166.411 3.14992 165.946 2.50918C165.48 1.86843 164.572 1.72444 163.931 2.18989L158.839 5.88857L155.141 0.796917C154.675 0.156171 153.766 0.0121791 153.126 0.47763C152.485 0.943081 152.341 1.85175 152.806 2.4925L156.505 7.58412L151.413 11.2828C150.773 11.7483 150.629 12.6569 151.094 13.2977C151.56 13.9384 152.468 14.0824 153.109 13.617L158.201 9.91828L161.899 15.0099C162.365 15.6507 163.273 15.7947 163.914 15.3292C164.565 14.8653 164.707 13.9665 164.233 13.3144Z" fill="white"/>
<path opacity="0.1" d="M505.23 67.3114L501.531 62.2198L506.623 58.5211C507.264 58.0557 507.408 57.147 506.942 56.5062C506.477 55.8655 505.568 55.7215 504.927 56.187L499.836 59.8856L496.137 54.794C495.671 54.1532 494.763 54.0092 494.122 54.4747C493.481 54.9402 493.337 55.8488 493.803 56.4896L497.501 61.5812L492.41 65.2799C491.769 65.7453 491.625 66.654 492.09 67.2947C492.556 67.9355 493.465 68.0795 494.105 67.614L499.197 63.9153L502.896 69.007C503.361 69.6477 504.27 69.7917 504.911 69.3263C505.561 68.8624 505.704 67.9636 505.23 67.3114Z" fill="white"/>
<path opacity="0.1" d="M482.619 34.8476L480.716 32.2273L483.336 30.3239C483.666 30.0843 483.74 29.6167 483.5 29.287C483.261 28.9572 482.793 28.8831 482.463 29.1226L479.843 31.0261L477.94 28.4058C477.7 28.076 477.233 28.0019 476.903 28.2415C476.573 28.481 476.499 28.9486 476.738 29.2784L478.642 31.8987L476.022 33.8021C475.692 34.0417 475.618 34.5093 475.857 34.8391C476.097 35.1688 476.564 35.2429 476.894 35.0034L479.515 33.0999L481.418 35.7202C481.658 36.05 482.125 36.1241 482.455 35.8846C482.79 35.6458 482.863 35.1833 482.619 34.8476Z" fill="white"/>
<path opacity="0.1" d="M107.38 61.7539H164.14V118.514H107.38V61.7539Z" stroke="white" stroke-width="2" stroke-miterlimit="10"/>
<path opacity="0.1" d="M79 33.374H135.76V90.134H79V33.374Z" fill="white"/>
<path opacity="0.1" d="M520.578 434.826L447.767 497.404C430.485 477.296 432.776 446.987 452.884 429.704C472.992 412.422 503.296 414.718 520.578 434.826Z" fill="white"/>
<path d="M97.1057 774.786C94.9599 774.786 93.2114 773.037 93.2114 770.891C93.2114 768.746 94.9599 766.997 97.1057 766.997C99.2515 766.997 101 768.746 101 770.891C101 773.05 99.2515 774.786 97.1057 774.786ZM101 794.191C101 792.045 99.2515 790.297 97.1057 790.297C94.9599 790.297 93.2114 792.045 93.2114 794.191C93.2114 796.337 94.9599 798.085 97.1057 798.085C99.2515 798.085 101 796.35 101 794.191ZM101 817.49C101 815.345 99.2515 813.596 97.1057 813.596C94.9599 813.596 93.2114 815.345 93.2114 817.49C93.2114 819.636 94.9599 821.385 97.1057 821.385C99.2515 821.398 101 819.65 101 817.49ZM101 840.803C101 838.657 99.2515 836.909 97.1057 836.909C94.9599 836.909 93.2114 838.657 93.2114 840.803C93.2114 842.949 94.9599 844.698 97.1057 844.698C99.2515 844.698 101 842.949 101 840.803ZM101 864.103C101 861.957 99.2515 860.208 97.1057 860.208C94.9599 860.208 93.2114 861.957 93.2114 864.103C93.2114 866.249 94.9599 867.997 97.1057 867.997C99.2515 867.997 101 866.249 101 864.103ZM77.7004 770.891C77.7004 768.746 75.952 766.997 73.8061 766.997C71.6603 766.997 69.9118 768.746 69.9118 770.891C69.9118 773.037 71.6603 774.786 73.8061 774.786C75.952 774.786 77.7004 773.05 77.7004 770.891ZM77.7004 794.191C77.7004 792.045 75.952 790.297 73.8061 790.297C71.6603 790.297 69.9118 792.045 69.9118 794.191C69.9118 796.337 71.6603 798.085 73.8061 798.085C75.952 798.085 77.7004 796.35 77.7004 794.191ZM77.7004 817.49C77.7004 815.345 75.952 813.596 73.8061 813.596C71.6603 813.596 69.9118 815.345 69.9118 817.49C69.9118 819.636 71.6603 821.385 73.8061 821.385C75.952 821.398 77.7004 819.65 77.7004 817.49ZM77.7004 840.803C77.7004 838.657 75.952 836.909 73.8061 836.909C71.6603 836.909 69.9118 838.657 69.9118 840.803C69.9118 842.949 71.6603 844.698 73.8061 844.698C75.952 844.698 77.7004 842.949 77.7004 840.803ZM77.7004 864.103C77.7004 861.957 75.952 860.208 73.8061 860.208C71.6603 860.208 69.9118 861.957 69.9118 864.103C69.9118 866.249 71.6603 867.997 73.8061 867.997C75.952 867.997 77.7004 866.249 77.7004 864.103ZM54.3877 770.891C54.3877 768.746 52.6392 766.997 50.4934 766.997C48.3475 766.997 46.5991 768.746 46.5991 770.891C46.5991 773.037 48.3475 774.786 50.4934 774.786C52.6525 774.786 54.3877 773.05 54.3877 770.891ZM54.3877 794.191C54.3877 792.045 52.6392 790.297 50.4934 790.297C48.3475 790.297 46.5991 792.045 46.5991 794.191C46.5991 796.337 48.3475 798.085 50.4934 798.085C52.6525 798.085 54.3877 796.35 54.3877 794.191ZM54.3877 817.49C54.3877 815.345 52.6392 813.596 50.4934 813.596C48.3475 813.596 46.5991 815.345 46.5991 817.49C46.5991 819.636 48.3475 821.385 50.4934 821.385C52.6525 821.398 54.3877 819.65 54.3877 817.49ZM54.3877 840.803C54.3877 838.657 52.6392 836.909 50.4934 836.909C48.3475 836.909 46.5991 838.657 46.5991 840.803C46.5991 842.949 48.3475 844.698 50.4934 844.698C52.6525 844.698 54.3877 842.949 54.3877 840.803ZM54.3877 864.103C54.3877 861.957 52.6392 860.208 50.4934 860.208C48.3475 860.208 46.5991 861.957 46.5991 864.103C46.5991 866.249 48.3475 867.997 50.4934 867.997C52.6525 867.997 54.3877 866.249 54.3877 864.103ZM31.0881 770.891C31.0881 768.746 29.3396 766.997 27.1938 766.997C25.048 766.997 23.2996 768.746 23.2996 770.891C23.2996 773.037 25.048 774.786 27.1938 774.786C29.3529 774.786 31.0881 773.05 31.0881 770.891ZM31.0881 794.191C31.0881 792.045 29.3396 790.297 27.1938 790.297C25.048 790.297 23.2996 792.045 23.2996 794.191C23.2996 796.337 25.048 798.085 27.1938 798.085C29.3529 798.085 31.0881 796.35 31.0881 794.191ZM31.0881 817.49C31.0881 815.345 29.3396 813.596 27.1938 813.596C25.048 813.596 23.2996 815.345 23.2996 817.49C23.2996 819.636 25.048 821.385 27.1938 821.385C29.3529 821.398 31.0881 819.65 31.0881 817.49ZM31.0881 840.803C31.0881 838.657 29.3396 836.909 27.1938 836.909C25.048 836.909 23.2996 838.657 23.2996 840.803C23.2996 842.949 25.048 844.698 27.1938 844.698C29.3529 844.698 31.0881 842.949 31.0881 840.803ZM31.0881 864.103C31.0881 861.957 29.3396 860.208 27.1938 860.208C25.048 860.208 23.2996 861.957 23.2996 864.103C23.2996 866.249 25.048 867.997 27.1938 867.997C29.3529 867.997 31.0881 866.249 31.0881 864.103ZM7.7886 770.891C7.7886 768.746 6.04013 766.997 3.8943 766.997C1.74846 766.997 0 768.746 0 770.891C0 773.037 1.74846 774.786 3.8943 774.786C6.04013 774.786 7.7886 773.05 7.7886 770.891ZM7.7886 794.191C7.7886 792.045 6.04013 790.297 3.8943 790.297C1.74846 790.297 0 792.045 0 794.191C0 796.337 1.74846 798.085 3.8943 798.085C6.04013 798.085 7.7886 796.35 7.7886 794.191ZM7.7886 817.49C7.7886 815.345 6.04013 813.596 3.8943 813.596C1.74846 813.596 0 815.345 0 817.49C0 819.636 1.74846 821.385 3.8943 821.385C6.04013 821.385 7.7886 819.65 7.7886 817.49ZM7.7886 840.803C7.7886 838.657 6.04013 836.909 3.8943 836.909C1.74846 836.909 0 838.657 0 840.803C0 842.949 1.74846 844.698 3.8943 844.698C6.04013 844.698 7.7886 842.949 7.7886 840.803ZM7.7886 864.103C7.7886 861.957 6.04013 860.208 3.8943 860.208C1.74846 860.208 0 861.957 0 864.103C0 866.249 1.74846 867.997 3.8943 867.997C6.04013 867.997 7.7886 866.249 7.7886 864.103Z" fill="#6C5FBC"/>
</svg>
