<svg width="428" height="221" viewBox="0 0 428 221" fill="none" xmlns="http://www.w3.org/2000/svg">
<path opacity="0.2" d="M369.68 577.878C375.051 546.412 382.885 516.816 380.878 482.889C379.445 458.657 373.444 434.809 361.905 412.053C340.393 369.626 312.272 329.179 278.84 296.952C244.679 264.02 211.142 228.188 172.566 202.899C136.7 179.387 98.4462 159.961 63.4787 134.41C4.88992 91.5973 -36.5777 23.2796 -71.774 -42.2887C-90.3942 -76.977 -108.862 -111.901 -126.688 -147.001C-137.875 -169.027 -147.272 -192.647 -161.027 -213.115M413.34 566.599C419.134 532.606 427.589 500.632 425.414 463.977C423.861 437.796 417.374 412.03 404.907 387.442C381.662 341.599 351.28 297.895 315.163 263.069C278.258 227.483 242.027 188.763 200.355 161.433C161.61 136.023 120.288 115.027 82.5133 87.4141C19.2218 41.1476 -25.5824 -32.6712 -63.6123 -103.518C-83.7316 -140.999 -103.686 -178.735 -122.948 -216.661C-135.036 -240.46 -145.191 -265.981 -160.052 -288.098" stroke="#A596FF" stroke-width="4.01667" stroke-linecap="round"/>
</svg>
