<svg width="1214" height="280" viewBox="0 0 1214 280" fill="none" xmlns="http://www.w3.org/2000/svg">
<g opacity="0.25">
<path d="M468.318 140.952C464.434 144.719 459.145 147.009 453.31 146.966C447.513 146.923 442.224 144.59 438.282 140.781" stroke="#1C186C" stroke-width="4.63957" stroke-linecap="round" stroke-linejoin="round"/>
<path d="M439.22 149.619C443.416 152.401 448.236 153.985 453.349 154.028C459.341 154.07 464.903 151.973 469.528 148.335C471.402 146.858 471.929 143.969 470.719 141.743L469.45 139.41L464.2 129.908C464.2 129.908 460.473 123.145 456.96 116.768C455.262 113.686 451.32 113.643 449.641 116.682L437.151 139.239L435.921 141.465C434.711 143.669 435.258 146.601 437.17 148.099C437.814 148.656 438.517 149.148 439.22 149.619Z" stroke="#1C186C" stroke-width="4.63957" stroke-linecap="round" stroke-linejoin="round"/>
<path d="M446.344 136.521C445.875 136.307 445.348 136.307 444.88 136.521C444.626 136.628 444.431 136.778 444.236 136.971C443.885 137.377 443.67 137.912 443.67 138.469C443.67 139.047 443.865 139.56 444.236 139.967C444.607 140.374 445.075 140.588 445.602 140.588C446.129 140.588 446.597 140.374 446.968 139.967C447.339 139.56 447.534 139.025 447.534 138.469C447.534 137.912 447.319 137.377 446.968 136.971C446.793 136.757 446.578 136.607 446.344 136.521Z" fill="#201D67"/>
<path d="M454.033 138.619C453.565 138.405 453.038 138.405 452.569 138.619C452.335 138.726 452.12 138.875 451.925 139.068C451.574 139.475 451.359 140.01 451.359 140.566C451.359 141.144 451.555 141.658 451.925 142.064C452.296 142.471 452.765 142.685 453.291 142.685C453.818 142.685 454.287 142.471 454.658 142.064C455.028 141.658 455.224 141.144 455.224 140.566C455.224 140.01 455.009 139.475 454.658 139.068C454.482 138.875 454.287 138.726 454.033 138.619Z" fill="#201D67"/>
<path d="M462.387 136.949C461.665 136.157 460.377 136.157 459.655 136.949C459.304 137.356 459.089 137.891 459.089 138.447C459.089 139.025 459.284 139.538 459.655 139.945C460.026 140.352 460.494 140.566 461.021 140.566C461.275 140.566 461.528 140.502 461.743 140.395C461.977 140.288 462.192 140.138 462.387 139.945C462.758 139.538 462.953 139.025 462.953 138.447C462.934 137.912 462.719 137.356 462.387 136.949Z" fill="#201D67"/>
<path d="M458.933 129.201C458.835 128.923 458.698 128.709 458.523 128.495C457.801 127.703 456.513 127.703 455.791 128.495C455.615 128.709 455.478 128.923 455.381 129.201C455.283 129.458 455.225 129.737 455.225 129.993C455.225 130.272 455.283 130.55 455.381 130.785C455.478 131.042 455.615 131.277 455.791 131.491C456.161 131.898 456.63 132.112 457.157 132.112C457.41 132.112 457.664 132.048 457.879 131.941C458.113 131.834 458.328 131.684 458.523 131.491C458.894 131.085 459.089 130.571 459.089 129.993C459.089 129.737 459.03 129.458 458.933 129.201Z" fill="#201D67"/>
<path d="M451.224 129.201C451.126 128.945 450.99 128.709 450.814 128.495C450.072 127.703 448.784 127.703 448.082 128.495C447.906 128.709 447.769 128.923 447.672 129.201C447.574 129.458 447.516 129.737 447.516 129.993C447.516 130.571 447.711 131.085 448.082 131.491C448.277 131.684 448.491 131.834 448.726 131.941C448.96 132.048 449.214 132.112 449.467 132.112C449.994 132.112 450.463 131.898 450.833 131.491C451.009 131.277 451.146 131.042 451.243 130.785C451.36 130.528 451.399 130.25 451.399 129.993C451.38 129.737 451.341 129.458 451.224 129.201Z" fill="#201D67"/>
<path d="M451.945 123.06C452.316 123.467 452.784 123.681 453.311 123.681C453.565 123.681 453.818 123.616 454.033 123.509C454.267 123.402 454.482 123.253 454.677 123.06C454.853 122.846 454.989 122.611 455.087 122.354C455.185 122.097 455.243 121.819 455.243 121.562C455.243 120.984 455.028 120.47 454.677 120.064C454.131 119.486 453.291 119.272 452.569 119.614C452.316 119.721 452.12 119.871 451.925 120.064C451.574 120.47 451.359 121.005 451.359 121.562C451.359 121.84 451.418 122.118 451.516 122.354C451.633 122.611 451.769 122.846 451.945 123.06Z" fill="#201D67"/>
<path d="M933.854 46.3139C931.493 51.7927 926.419 55.5808 920.525 55.5808C912.387 55.5808 905.771 48.3257 905.771 39.4012C905.771 31.4613 911.001 24.8482 917.91 23.4785C918.144 28.2939 921.364 32.2531 925.579 33.1306C925.501 33.7084 925.443 34.3077 925.443 34.9069C925.443 40.5141 929.053 45.201 933.854 46.3139Z" stroke="#1C186C" stroke-width="4.63957" stroke-linecap="round" stroke-linejoin="round"/>
<path d="M914.416 30.5845C913.226 30.5845 912.25 31.6545 912.25 32.96C912.25 34.2655 913.226 35.3356 914.416 35.3356C915.607 35.3356 916.583 34.2655 916.583 32.96C916.583 31.6331 915.607 30.5845 914.416 30.5845Z" fill="#201D67"/>
<path d="M909.635 18.1929C908.445 18.1929 907.469 19.2629 907.469 20.5684C907.469 21.8739 908.445 22.944 909.635 22.944C910.826 22.944 911.801 21.8739 911.801 20.5684C911.782 19.2415 910.826 18.1929 909.635 18.1929Z" fill="#201D67"/>
<path d="M920.72 37.8813C919.529 37.8813 918.554 38.9514 918.554 40.2569C918.554 41.5624 919.529 42.6325 920.72 42.6325C921.91 42.6325 922.886 41.5624 922.886 40.2569C922.886 38.93 921.91 37.8813 920.72 37.8813Z" fill="#201D67"/>
<path d="M922.594 47.4058C922.594 47.4058 922.184 47.6626 921.658 48.005C921.15 48.326 920.721 48.6042 920.721 48.6042C920.721 48.6042 921.131 48.3474 921.658 48.005C922.165 47.6626 922.594 47.4058 922.594 47.4058Z" stroke="#1C186C" stroke-width="4.63957" stroke-linecap="round" stroke-linejoin="round"/>
<path d="M912.659 41.2637C912.659 41.2637 913.108 41.4777 913.654 41.7345C914.201 41.9913 914.65 42.2053 914.65 42.2053C914.65 42.2053 914.201 41.9913 913.654 41.7345C913.108 41.4777 912.659 41.2637 912.659 41.2637Z" stroke="#1C186C" stroke-width="4.63957" stroke-linecap="round" stroke-linejoin="round"/>
<path d="M902.979 27.8023C902.979 27.8023 903.331 27.4385 903.76 26.989C904.189 26.5396 904.541 26.1758 904.541 26.1758C904.541 26.1758 904.189 26.5396 903.76 26.989C903.331 27.4385 902.979 27.8023 902.979 27.8023Z" stroke="#1C186C" stroke-width="4.63957" stroke-linecap="round" stroke-linejoin="round"/>
<path d="M901.007 39.723C898.978 37.1976 897.748 33.9018 897.748 30.285C897.748 22.3878 903.583 15.9888 910.785 15.9888C916.601 15.9888 921.538 20.1621 923.217 25.9405" stroke="#1C186C" stroke-width="4.63957" stroke-linecap="round" stroke-linejoin="round"/>
<path d="M532.54 204.578C531.287 204.272 529.984 204.316 528.749 204.705C527.515 205.094 526.39 205.815 525.475 206.803C525.088 207.242 524.871 207.83 524.871 208.441C524.871 209.052 525.088 209.639 525.475 210.078L527.7 212.603" stroke="#1C186C" stroke-width="4.63957" stroke-linecap="round" stroke-linejoin="round"/>
<path d="M547.099 220.821C547.367 222.213 547.315 223.656 546.947 225.02C546.579 226.383 545.907 227.625 544.991 228.633C544.797 228.848 544.566 229.018 544.311 229.135C544.057 229.251 543.784 229.311 543.508 229.311C543.232 229.311 542.959 229.251 542.704 229.135C542.45 229.018 542.219 228.848 542.025 228.633L539.761 226.107" stroke="#1C186C" stroke-width="4.63957" stroke-linecap="round" stroke-linejoin="round"/>
<path d="M529.242 226.621C530.047 228.017 530.473 229.635 530.472 231.287C530.471 232.401 530.269 233.505 529.877 234.534C529.485 235.562 528.911 236.495 528.188 237.279C528.052 237.414 527.875 237.489 527.691 237.489C527.507 237.489 527.329 237.414 527.193 237.279C526.555 236.57 526.045 235.735 525.69 234.818C525.368 234.147 525.144 233.425 525.027 232.678C524.982 232.223 524.982 231.763 525.027 231.308C525.377 229.227 526.345 227.331 527.778 225.915C526.45 227.449 524.704 228.47 522.802 228.826C522.386 228.869 521.968 228.869 521.553 228.826C520.87 228.679 520.212 228.42 519.601 228.055C518.761 227.618 518.006 227.008 517.376 226.257C517.253 226.108 517.185 225.913 517.185 225.712C517.185 225.51 517.253 225.315 517.376 225.166C518.837 223.6 520.798 222.724 522.841 222.726C524.339 222.737 525.802 223.22 527.056 224.117" stroke="#1C186C" stroke-width="4.63957" stroke-linecap="round" stroke-linejoin="round"/>
<path d="M551.628 199.848C551.396 199.557 551.134 199.299 550.847 199.077C550.044 198.516 549.147 198.136 548.209 197.96C547.271 197.784 546.31 197.814 545.382 198.05C543.191 198.413 541.076 199.203 539.137 200.383C535.493 202.313 532.431 205.351 530.316 209.136C528.441 212.941 527.38 217.163 527.213 221.484C527.213 221.784 526.881 224.031 527.096 224.181L529.262 226.621C529.399 226.856 531.428 226.621 531.702 226.514C535.661 226.4 539.543 225.279 543.04 223.239C546.51 220.992 549.305 217.682 551.081 213.716C552.799 209.799 554.75 203.571 551.628 199.848Z" stroke="#1C186C" stroke-width="4.63957" stroke-linecap="round" stroke-linejoin="round"/>
<path d="M538.042 202.331C538.834 205.251 540.26 207.917 542.199 210.099C544.146 212.276 546.552 213.893 549.205 214.808" stroke="#1C186C" stroke-width="4.63957" stroke-linecap="round" stroke-linejoin="round"/>
<path d="M546.475 202.394C546.293 202.187 546.075 202.022 545.833 201.91C545.592 201.797 545.332 201.739 545.07 201.739C544.807 201.739 544.548 201.797 544.306 201.91C544.065 202.022 543.847 202.187 543.665 202.394C543.399 202.697 543.22 203.078 543.151 203.491C543.081 203.904 543.124 204.33 543.274 204.717C543.423 205.103 543.674 205.433 543.993 205.664C544.312 205.896 544.687 206.02 545.07 206.02C545.453 206.02 545.827 205.896 546.147 205.664C546.466 205.433 546.716 205.103 546.866 204.717C547.016 204.33 547.058 203.904 546.989 203.491C546.919 203.078 546.741 202.697 546.475 202.394V202.394Z" fill="#201D67"/>
<path d="M730.182 215.428L738.203 239.633L746.224 215.428" stroke="#1C186C" stroke-width="4.63957" stroke-linecap="round" stroke-linejoin="round"/>
<path d="M750.244 214.337C749.912 214.337 749.62 214.358 749.346 214.401C747.2 214.786 746.907 216.541 744.214 216.541C741.189 216.541 741.189 214.337 738.203 214.337C735.178 214.337 735.178 216.541 732.192 216.541C729.498 216.541 729.225 214.808 727.059 214.401C726.805 214.358 726.493 214.337 726.161 214.337" stroke="#1C186C" stroke-width="4.63957" stroke-linecap="round" stroke-linejoin="round"/>
<path d="M748.235 211.041C748.235 212.197 748.078 213.353 747.747 214.401C745.893 214.787 745.658 216.542 743.355 216.542C740.76 216.542 740.76 214.337 738.203 214.337C735.608 214.337 735.608 216.542 733.051 216.542C730.748 216.542 730.494 214.808 728.66 214.401C728.348 213.353 728.172 212.197 728.172 211.041C728.172 204.963 732.661 200.041 738.203 200.041C743.746 200.041 748.235 204.963 748.235 211.041Z" stroke="#1C186C" stroke-width="4.63957" stroke-linecap="round" stroke-linejoin="round"/>
<path d="M748.235 217.634H728.172" stroke="#1C186C" stroke-width="4.63957" stroke-linecap="round" stroke-linejoin="round"/>
<path d="M936.683 218.551H922.241V220.82H936.683V218.551Z" stroke="#1C186C" stroke-width="4.63957" stroke-linecap="round" stroke-linejoin="round"/>
<path d="M945.427 200.446C946.754 200.446 947.769 201.816 947.456 203.228C945.407 212.025 938.128 218.531 929.463 218.531C920.797 218.531 913.518 212.025 911.469 203.228C911.137 201.816 912.152 200.446 913.498 200.446H945.427V200.446Z" stroke="#1C186C" stroke-width="4.63957" stroke-linecap="round" stroke-linejoin="round"/>
<path d="M921.675 200.446C923.949 200.446 925.792 198.424 925.792 195.93C925.792 193.436 923.949 191.415 921.675 191.415C919.4 191.415 917.557 193.436 917.557 195.93C917.557 198.424 919.4 200.446 921.675 200.446Z" stroke="#1C186C" stroke-width="4.63957" stroke-linecap="round" stroke-linejoin="round"/>
<path d="M937.249 200.105C939.523 200.105 941.367 198.083 941.367 195.589C941.367 193.095 939.523 191.073 937.249 191.073C934.974 191.073 933.131 193.095 933.131 195.589C933.131 198.083 934.974 200.105 937.249 200.105Z" stroke="#1C186C" stroke-width="4.63957" stroke-linecap="round" stroke-linejoin="round"/>
<path d="M930.107 200.126C931.821 200.126 933.21 198.602 933.21 196.723C933.21 194.844 931.821 193.32 930.107 193.32C928.393 193.32 927.004 194.844 927.004 196.723C927.004 198.602 928.393 200.126 930.107 200.126Z" stroke="#1C186C" stroke-width="4.63957" stroke-linecap="round" stroke-linejoin="round"/>
<path d="M919.431 191.715L912.952 184.609" stroke="#1C186C" stroke-width="4.63957" stroke-linecap="round" stroke-linejoin="round"/>
<path d="M914.006 207.189H944.92" stroke="#1C186C" stroke-width="4.63957" stroke-linecap="round" stroke-linejoin="round"/>
<path d="M853.349 112.83H818.22C818.22 116.382 820.835 119.25 824.075 119.25H847.494C850.734 119.25 853.349 116.382 853.349 112.83Z" stroke="#1C186C" stroke-width="4.63957" stroke-linecap="round" stroke-linejoin="round"/>
<path d="M835.785 93.5684C827.159 93.5684 820.172 101.23 820.172 110.69V112.83H851.398V110.69C851.398 101.23 844.411 93.5684 835.785 93.5684Z" stroke="#1C186C" stroke-width="4.63957" stroke-linecap="round" stroke-linejoin="round"/>
<path d="M835.784 95.1736C837.671 95.1736 839.2 93.4968 839.2 91.4284C839.2 89.3599 837.671 87.6831 835.784 87.6831C833.898 87.6831 832.369 89.3599 832.369 91.4284C832.369 93.4968 833.898 95.1736 835.784 95.1736Z" fill="#201D67"/>
<path d="M713.257 82.9697C718.663 83.3336 724.069 85.9231 728.343 90.6743C732.578 95.3826 734.9 101.375 735.252 107.367" stroke="#1C186C" stroke-width="4.63957" stroke-linecap="round" stroke-linejoin="round"/>
<path d="M737.474 108.758L735.074 109.4L710.717 115.928C707.439 116.805 704.57 113.595 705.39 109.957L707.107 102.252L707.224 101.76L708.727 95.0613L708.863 94.4193L711.4 83.1835L712.025 80.4441C712.611 77.8117 714.933 76.121 717.314 76.549C723.169 77.5977 728.672 80.5511 733.063 85.4307C737.435 90.2674 740.07 96.3668 741.026 102.851C741.416 105.505 739.855 108.116 737.474 108.758Z" stroke="#1C186C" stroke-width="4.63957" stroke-linecap="round" stroke-linejoin="round"/>
<path d="M722.76 101.909C724.485 101.909 725.883 100.357 725.883 98.4421C725.883 96.5273 724.485 94.9751 722.76 94.9751C721.036 94.9751 719.638 96.5273 719.638 98.4421C719.638 100.357 721.036 101.909 722.76 101.909Z" stroke="#1C186C" stroke-width="4.63957" stroke-linecap="round" stroke-linejoin="round"/>
<path d="M711.205 100.605C710.132 101.803 708.59 102.188 707.224 101.718L709.175 92.9858C709.917 93.1785 710.619 93.5637 711.205 94.2057C712.805 95.982 712.805 98.8499 711.205 100.605Z" stroke="#1C186C" stroke-width="4.63957" stroke-linecap="round" stroke-linejoin="round"/>
<path d="M713.665 112.803C713.372 111.562 713.665 110.192 714.523 109.229C715.831 107.774 717.939 107.774 719.246 109.229C719.676 109.7 719.969 110.278 720.105 110.898" stroke="#1C186C" stroke-width="4.63957" stroke-linecap="round" stroke-linejoin="round"/>
<path d="M635.062 114.776L615.078 136.691C612.951 139.024 612.951 142.791 615.078 145.123C617.205 147.456 620.64 147.456 622.767 145.123L642.752 123.208C644.879 120.875 644.879 117.109 642.752 114.776C640.625 112.443 637.19 112.443 635.062 114.776Z" stroke="#1C186C" stroke-width="4.63957" stroke-linecap="round" stroke-linejoin="round"/>
<path d="M619.273 139.602C621.576 137.076 622.396 137.975 624.718 135.45C627.021 132.925 626.202 132.026 628.505 129.479C630.808 126.953 631.647 127.852 633.95 125.327C636.253 122.802 635.433 121.881 637.736 119.356" stroke="#1C186C" stroke-width="4.63957" stroke-linecap="round" stroke-linejoin="round"/>
<path d="M628.153 112.251L612.774 129.115C610.217 131.919 610.217 136.435 612.774 139.238L637.364 112.272C634.827 109.447 630.69 109.447 628.153 112.251Z" stroke="#1C186C" stroke-width="4.63957" stroke-linecap="round" stroke-linejoin="round"/>
<path d="M629.676 147.648L645.054 130.784C647.611 127.98 647.611 123.465 645.054 120.661L620.464 147.627C623.001 150.452 627.138 150.452 629.676 147.648Z" stroke="#1C186C" stroke-width="4.63957" stroke-linecap="round" stroke-linejoin="round"/>
<path d="M531.333 66.2172H511.816C508.343 66.2172 505.532 63.1354 505.532 59.3259V55.2168H537.617V59.3259C537.617 63.1354 534.807 66.2172 531.333 66.2172Z" stroke="#1C186C" stroke-width="4.63957" stroke-linecap="round" stroke-linejoin="round"/>
<path d="M536.622 48.6245H506.528C504.869 48.6245 503.522 50.1012 503.522 51.9203C503.522 53.7395 504.869 55.2162 506.528 55.2162H536.622C538.281 55.2162 539.627 53.7395 539.627 51.9203C539.627 50.1012 538.281 48.6245 536.622 48.6245Z" stroke="#1C186C" stroke-width="4.63957" stroke-linecap="round" stroke-linejoin="round"/>
<path d="M522.609 31.0327H520.54C512.246 31.0327 505.532 38.3948 505.532 47.4905V48.6247H537.617V47.4905C537.617 38.3948 530.903 31.0327 522.609 31.0327Z" stroke="#1C186C" stroke-width="4.63957" stroke-linecap="round" stroke-linejoin="round"/>
<path d="M505.317 55.7515C506.079 56.6503 506.625 57.8702 508.05 57.8702C509.474 57.8702 510.021 56.6503 510.782 55.7515" stroke="#1C186C" stroke-width="4.63957" stroke-linecap="round" stroke-linejoin="round"/>
<path d="M523.643 55.7515C524.404 56.6503 524.95 57.8702 526.375 57.8702C527.819 57.8702 528.365 56.6503 529.127 55.7515" stroke="#1C186C" stroke-width="4.63957" stroke-linecap="round" stroke-linejoin="round"/>
<path d="M535.566 57.8487C534.142 57.8487 533.595 56.6288 532.834 55.73" stroke="#1C186C" stroke-width="4.63957" stroke-linecap="round" stroke-linejoin="round"/>
<path d="M514.489 55.7515C515.25 56.6503 515.797 57.8702 517.222 57.8702C518.646 57.8702 519.193 56.6503 519.954 55.7515" stroke="#1C186C" stroke-width="4.63957" stroke-linecap="round" stroke-linejoin="round"/>
<path d="M1025.56 96.0091C1021.67 99.7758 1016.38 102.066 1010.55 102.023C1004.75 101.98 999.463 99.6474 995.521 95.8379" stroke="#1C186C" stroke-width="4.63957" stroke-linecap="round" stroke-linejoin="round"/>
<path d="M996.457 104.676C1000.65 107.458 1005.47 109.042 1010.59 109.085C1016.58 109.128 1022.14 107.03 1026.77 103.392C1028.64 101.915 1029.17 99.026 1027.96 96.8002L1026.69 94.4675L1021.44 84.9652C1021.44 84.9652 1017.71 78.2023 1014.2 71.8247C1012.5 68.7429 1008.56 68.7001 1006.88 71.7391L994.388 94.2963L993.159 96.522C991.949 98.7264 992.495 101.658 994.408 103.156C995.052 103.713 995.754 104.205 996.457 104.676Z" stroke="#1C186C" stroke-width="4.63957" stroke-linecap="round" stroke-linejoin="round"/>
<path d="M1003.58 91.5785C1003.11 91.3645 1002.58 91.3645 1002.12 91.5785C1001.86 91.6855 1001.67 91.8353 1001.47 92.0279C1001.12 92.4345 1000.91 92.9696 1000.91 93.526C1000.91 94.1038 1001.1 94.6175 1001.47 95.0241C1001.84 95.4307 1002.31 95.6448 1002.84 95.6448C1003.37 95.6448 1003.83 95.4307 1004.2 95.0241C1004.58 94.6175 1004.77 94.0824 1004.77 93.526C1004.77 92.9696 1004.56 92.4345 1004.2 92.0279C1004.03 91.8139 1003.81 91.6641 1003.58 91.5785Z" fill="#201D67"/>
<path d="M1011.27 93.6776C1010.8 93.4636 1010.27 93.4636 1009.81 93.6776C1009.57 93.7846 1009.36 93.9344 1009.16 94.127C1008.81 94.5336 1008.6 95.0687 1008.6 95.6251C1008.6 96.203 1008.79 96.7166 1009.16 97.1232C1009.53 97.5299 1010 97.7439 1010.53 97.7439C1011.05 97.7439 1011.52 97.5299 1011.89 97.1232C1012.26 96.7166 1012.46 96.203 1012.46 95.6251C1012.46 95.0687 1012.25 94.5336 1011.89 94.127C1011.72 93.9344 1011.52 93.7846 1011.27 93.6776Z" fill="#201D67"/>
<path d="M1019.62 92.0065C1018.9 91.2146 1017.61 91.2146 1016.89 92.0065C1016.54 92.4131 1016.33 92.9481 1016.33 93.5046C1016.33 94.0824 1016.52 94.5961 1016.89 95.0027C1017.26 95.4093 1017.73 95.6233 1018.26 95.6233C1018.51 95.6233 1018.76 95.5591 1018.98 95.4521C1019.21 95.3451 1019.43 95.1953 1019.62 95.0027C1019.99 94.5961 1020.19 94.0824 1020.19 93.5046C1020.17 92.9696 1019.96 92.4131 1019.62 92.0065Z" fill="#201D67"/>
<path d="M1016.17 84.2606C1016.07 83.9823 1015.93 83.7684 1015.76 83.5543C1015.04 82.7625 1013.75 82.7625 1013.03 83.5543C1012.85 83.7684 1012.71 83.9823 1012.62 84.2606C1012.52 84.5174 1012.46 84.7956 1012.46 85.0524C1012.46 85.3307 1012.52 85.6089 1012.62 85.8443C1012.71 86.1011 1012.85 86.3365 1013.03 86.5505C1013.4 86.9572 1013.87 87.1712 1014.39 87.1712C1014.65 87.1712 1014.9 87.107 1015.11 87C1015.35 86.8929 1015.56 86.7432 1015.76 86.5505C1016.13 86.1439 1016.32 85.6303 1016.32 85.0524C1016.32 84.7956 1016.27 84.5174 1016.17 84.2606Z" fill="#201D67"/>
<path d="M1008.46 84.2606C1008.36 84.0037 1008.22 83.7684 1008.05 83.5543C1007.31 82.7625 1006.02 82.7625 1005.32 83.5543C1005.14 83.7684 1005 83.9823 1004.91 84.2606C1004.81 84.5174 1004.75 84.7956 1004.75 85.0524C1004.75 85.6303 1004.95 86.1439 1005.32 86.5505C1005.51 86.7432 1005.73 86.8929 1005.96 87C1006.19 87.107 1006.45 87.1712 1006.7 87.1712C1007.23 87.1712 1007.7 86.9572 1008.07 86.5505C1008.24 86.3365 1008.38 86.1011 1008.48 85.8443C1008.59 85.5875 1008.63 85.3093 1008.63 85.0524C1008.61 84.7956 1008.58 84.5174 1008.46 84.2606Z" fill="#201D67"/>
<path d="M1009.18 78.1171C1009.55 78.5237 1010.02 78.7378 1010.55 78.7378C1010.8 78.7378 1011.05 78.6736 1011.27 78.5666C1011.5 78.4596 1011.72 78.3097 1011.91 78.1171C1012.09 77.9031 1012.23 77.6677 1012.32 77.4109C1012.42 77.154 1012.48 76.8758 1012.48 76.619C1012.48 76.0412 1012.26 75.5276 1011.91 75.1209C1011.37 74.5431 1010.53 74.3291 1009.81 74.6715C1009.55 74.7785 1009.36 74.9283 1009.16 75.1209C1008.81 75.5276 1008.6 76.0626 1008.6 76.619C1008.6 76.8972 1008.65 77.1754 1008.75 77.4109C1008.87 77.6677 1009.01 77.9031 1009.18 78.1171Z" fill="#201D67"/>
<path d="M840.175 256.048C837.813 261.527 832.739 265.315 826.845 265.315C818.707 265.315 812.091 258.06 812.091 249.136C812.091 241.196 817.321 234.583 824.23 233.213C824.464 238.028 827.684 241.988 831.9 242.865C831.822 243.443 831.763 244.042 831.763 244.641C831.763 250.248 835.374 254.935 840.175 256.048Z" stroke="#1C186C" stroke-width="4.63957" stroke-linecap="round" stroke-linejoin="round"/>
<path d="M820.736 240.318C819.545 240.318 818.569 241.388 818.569 242.693C818.569 243.999 819.545 245.069 820.736 245.069C821.926 245.069 822.902 243.999 822.902 242.693C822.902 241.367 821.926 240.318 820.736 240.318Z" fill="#201D67"/>
<path d="M815.954 227.926C814.764 227.926 813.788 228.996 813.788 230.301C813.788 231.607 814.764 232.677 815.954 232.677C817.145 232.677 818.121 231.607 818.121 230.301C818.101 228.974 817.145 227.926 815.954 227.926Z" fill="#201D67"/>
<path d="M827.039 247.617C825.849 247.617 824.873 248.687 824.873 249.992C824.873 251.298 825.849 252.368 827.039 252.368C828.23 252.368 829.206 251.298 829.206 249.992C829.206 248.665 828.23 247.617 827.039 247.617Z" fill="#201D67"/>
<path d="M828.914 257.138C828.914 257.138 828.504 257.395 827.977 257.737C827.469 258.058 827.04 258.337 827.04 258.337C827.04 258.337 827.45 258.08 827.977 257.737C828.484 257.395 828.914 257.138 828.914 257.138Z" stroke="#1C186C" stroke-width="4.63957" stroke-linecap="round" stroke-linejoin="round"/>
<path d="M818.981 250.998C818.981 250.998 819.43 251.212 819.977 251.468C820.523 251.725 820.972 251.939 820.972 251.939C820.972 251.939 820.523 251.725 819.977 251.468C819.43 251.212 818.981 250.998 818.981 250.998Z" stroke="#1C186C" stroke-width="4.63957" stroke-linecap="round" stroke-linejoin="round"/>
<path d="M809.301 237.536C809.301 237.536 809.652 237.172 810.081 236.723C810.511 236.273 810.862 235.91 810.862 235.91C810.862 235.91 810.511 236.273 810.081 236.723C809.652 237.172 809.301 237.536 809.301 237.536Z" stroke="#1C186C" stroke-width="4.63957" stroke-linecap="round" stroke-linejoin="round"/>
<path d="M807.33 249.457C805.3 246.932 804.07 243.636 804.07 240.019C804.07 232.122 809.906 225.723 817.107 225.723C822.923 225.723 827.861 229.896 829.539 235.675" stroke="#1C186C" stroke-width="4.63957" stroke-linecap="round" stroke-linejoin="round"/>
<path d="M1098.47 159.636C1097.22 159.331 1095.91 159.375 1094.68 159.763C1093.45 160.152 1092.32 160.874 1091.4 161.862C1091.02 162.301 1090.8 162.888 1090.8 163.499C1090.8 164.11 1091.02 164.697 1091.4 165.136L1093.63 167.662" stroke="#1C186C" stroke-width="4.63957" stroke-linecap="round" stroke-linejoin="round"/>
<path d="M1113.03 175.879C1113.3 177.271 1113.24 178.714 1112.88 180.078C1112.51 181.442 1111.84 182.683 1110.92 183.691C1110.73 183.906 1110.5 184.076 1110.24 184.193C1109.99 184.309 1109.71 184.369 1109.44 184.369C1109.16 184.369 1108.89 184.309 1108.63 184.193C1108.38 184.076 1108.15 183.906 1107.95 183.691L1105.69 181.166" stroke="#1C186C" stroke-width="4.63957" stroke-linecap="round" stroke-linejoin="round"/>
<path d="M1095.17 181.68C1095.98 183.076 1096.4 184.694 1096.4 186.345C1096.4 187.46 1096.2 188.564 1095.81 189.592C1095.41 190.621 1094.84 191.554 1094.12 192.338C1093.98 192.473 1093.8 192.548 1093.62 192.548C1093.44 192.548 1093.26 192.473 1093.12 192.338C1092.48 191.629 1091.97 190.794 1091.62 189.877C1091.3 189.206 1091.07 188.484 1090.96 187.736C1090.91 187.281 1090.91 186.822 1090.96 186.367C1091.31 184.286 1092.27 182.39 1093.71 180.973C1092.38 182.507 1090.63 183.528 1088.73 183.884C1088.32 183.927 1087.9 183.927 1087.48 183.884C1086.8 183.738 1086.14 183.478 1085.53 183.114C1084.69 182.677 1083.94 182.066 1083.31 181.316C1083.18 181.166 1083.11 180.972 1083.11 180.77C1083.11 180.568 1083.18 180.374 1083.31 180.224C1084.77 178.659 1086.73 177.783 1088.77 177.785C1090.27 177.795 1091.73 178.278 1092.99 179.176" stroke="#1C186C" stroke-width="4.63957" stroke-linecap="round" stroke-linejoin="round"/>
<path d="M1117.56 154.906C1117.33 154.616 1117.06 154.357 1116.78 154.136C1115.97 153.575 1115.08 153.195 1114.14 153.019C1113.2 152.842 1112.24 152.873 1111.31 153.108C1109.12 153.472 1107.01 154.262 1105.07 155.441C1101.42 157.372 1098.36 160.41 1096.25 164.194C1094.37 167.999 1093.31 172.222 1093.14 176.543C1093.14 176.843 1092.81 179.09 1093.03 179.24L1095.19 181.679C1095.33 181.915 1097.36 181.679 1097.63 181.572C1101.59 181.459 1105.47 180.338 1108.97 178.298C1112.44 176.051 1115.23 172.741 1117.01 168.774C1118.73 164.858 1120.68 158.63 1117.56 154.906Z" stroke="#1C186C" stroke-width="4.63957" stroke-linecap="round" stroke-linejoin="round"/>
<path d="M1103.97 157.389C1104.77 160.31 1106.19 162.976 1108.13 165.158C1110.08 167.335 1112.49 168.952 1115.14 169.866" stroke="#1C186C" stroke-width="4.63957" stroke-linecap="round" stroke-linejoin="round"/>
<path d="M1112.4 157.453C1112.22 157.246 1112 157.081 1111.76 156.968C1111.52 156.856 1111.26 156.798 1111 156.798C1110.74 156.798 1110.48 156.856 1110.24 156.968C1109.99 157.081 1109.78 157.246 1109.59 157.453C1109.33 157.755 1109.15 158.137 1109.08 158.549C1109.01 158.962 1109.05 159.389 1109.2 159.775C1109.35 160.162 1109.6 160.491 1109.92 160.723C1110.24 160.955 1110.62 161.078 1111 161.078C1111.38 161.078 1111.76 160.955 1112.08 160.723C1112.4 160.491 1112.65 160.162 1112.8 159.775C1112.95 159.389 1112.99 158.962 1112.92 158.549C1112.85 158.137 1112.67 157.755 1112.4 157.453V157.453Z" fill="#201D67"/>
<path d="M615.235 245.048C620.641 245.412 626.047 248.002 630.321 252.753C634.556 257.461 636.879 263.454 637.23 269.446" stroke="#1C186C" stroke-width="4.63957" stroke-linecap="round" stroke-linejoin="round"/>
<path d="M639.453 270.837L637.052 271.479L612.696 278.006C609.417 278.884 606.548 275.674 607.368 272.035L609.085 264.331L609.203 263.839L610.705 257.14L610.842 256.498L613.379 245.262L614.004 242.523C614.589 239.89 616.911 238.2 619.292 238.628C625.147 239.676 630.651 242.63 635.042 247.509C639.414 252.346 642.048 258.445 643.005 264.93C643.395 267.584 641.834 270.195 639.453 270.837Z" stroke="#1C186C" stroke-width="4.63957" stroke-linecap="round" stroke-linejoin="round"/>
<path d="M624.738 263.99C626.462 263.99 627.86 262.438 627.86 260.523C627.86 258.608 626.462 257.056 624.738 257.056C623.013 257.056 621.615 258.608 621.615 260.523C621.615 262.438 623.013 263.99 624.738 263.99Z" stroke="#1C186C" stroke-width="4.63957" stroke-linecap="round" stroke-linejoin="round"/>
<path d="M613.184 262.683C612.111 263.881 610.569 264.267 609.203 263.796L611.155 255.064C611.896 255.257 612.599 255.642 613.184 256.284C614.785 258.06 614.785 260.928 613.184 262.683Z" stroke="#1C186C" stroke-width="4.63957" stroke-linecap="round" stroke-linejoin="round"/>
<path d="M615.643 274.883C615.351 273.642 615.643 272.272 616.502 271.309C617.81 269.853 619.917 269.853 621.225 271.309C621.654 271.78 621.947 272.357 622.084 272.978" stroke="#1C186C" stroke-width="4.63957" stroke-linecap="round" stroke-linejoin="round"/>
<path d="M1178.73 231.676C1184.13 232.04 1189.54 234.63 1193.81 239.381C1198.05 244.089 1200.37 250.082 1200.72 256.074" stroke="#1C186C" stroke-width="4.63957" stroke-linecap="round" stroke-linejoin="round"/>
<path d="M1202.95 257.466L1200.55 258.108L1176.19 264.635C1172.91 265.513 1170.04 262.303 1170.86 258.664L1172.58 250.96L1172.7 250.468L1174.2 243.769L1174.34 243.127L1176.87 231.891L1177.5 229.152C1178.08 226.519 1180.41 224.829 1182.79 225.257C1188.64 226.305 1194.15 229.259 1198.54 234.138C1202.91 238.975 1205.54 245.074 1206.5 251.559C1206.89 254.213 1205.33 256.824 1202.95 257.466Z" stroke="#1C186C" stroke-width="4.63957" stroke-linecap="round" stroke-linejoin="round"/>
<path d="M1188.23 250.617C1189.96 250.617 1191.36 249.064 1191.36 247.15C1191.36 245.235 1189.96 243.683 1188.23 243.683C1186.51 243.683 1185.11 245.235 1185.11 247.15C1185.11 249.064 1186.51 250.617 1188.23 250.617Z" stroke="#1C186C" stroke-width="4.63957" stroke-linecap="round" stroke-linejoin="round"/>
<path d="M1176.68 249.312C1175.61 250.511 1174.06 250.896 1172.7 250.425L1174.65 241.693C1175.39 241.886 1176.09 242.271 1176.68 242.913C1178.28 244.69 1178.28 247.557 1176.68 249.312Z" stroke="#1C186C" stroke-width="4.63957" stroke-linecap="round" stroke-linejoin="round"/>
<path d="M1179.14 261.511C1178.85 260.269 1179.14 258.9 1180 257.937C1181.3 256.481 1183.41 256.481 1184.72 257.937C1185.15 258.408 1185.44 258.985 1185.58 259.606" stroke="#1C186C" stroke-width="4.63957" stroke-linecap="round" stroke-linejoin="round"/>
<path d="M1196.64 69.8345L1176.66 91.7497C1174.53 94.0824 1174.53 97.8491 1176.66 100.182C1178.79 102.515 1182.22 102.515 1184.35 100.182L1204.33 78.2667C1206.46 75.934 1206.46 72.1673 1204.33 69.8345C1202.21 67.5018 1198.77 67.5018 1196.64 69.8345Z" stroke="#1C186C" stroke-width="4.63957" stroke-linecap="round" stroke-linejoin="round"/>
<path d="M1180.86 94.6594C1183.16 92.134 1183.98 93.0329 1186.3 90.5075C1188.6 87.9821 1187.78 87.0833 1190.09 84.5365C1192.39 82.0111 1193.23 82.91 1195.53 80.3846C1197.83 77.8592 1197.01 76.939 1199.32 74.4136" stroke="#1C186C" stroke-width="4.63957" stroke-linecap="round" stroke-linejoin="round"/>
<path d="M1189.74 67.3085L1174.36 84.1729C1171.8 86.9765 1171.8 91.4922 1174.36 94.2958L1198.95 67.3299C1196.41 64.5049 1192.27 64.5049 1189.74 67.3085Z" stroke="#1C186C" stroke-width="4.63957" stroke-linecap="round" stroke-linejoin="round"/>
<path d="M1191.26 102.706L1206.64 85.8412C1209.19 83.0376 1209.19 78.5219 1206.64 75.7183L1182.05 102.684C1184.58 105.509 1188.72 105.509 1191.26 102.706Z" stroke="#1C186C" stroke-width="4.63957" stroke-linecap="round" stroke-linejoin="round"/>
<path d="M437.655 275.953H418.139C414.665 275.953 411.854 272.871 411.854 269.061V264.952H443.939V269.061C443.939 272.871 441.129 275.953 437.655 275.953Z" stroke="#1C186C" stroke-width="4.63957" stroke-linecap="round" stroke-linejoin="round"/>
<path d="M442.943 258.36H412.849C411.19 258.36 409.844 259.837 409.844 261.656C409.844 263.475 411.19 264.952 412.849 264.952H442.943C444.602 264.952 445.949 263.475 445.949 261.656C445.949 259.837 444.602 258.36 442.943 258.36Z" stroke="#1C186C" stroke-width="4.63957" stroke-linecap="round" stroke-linejoin="round"/>
<path d="M428.931 240.768H426.862C418.568 240.768 411.854 248.13 411.854 257.226V258.36H443.939V257.226C443.939 248.13 437.226 240.768 428.931 240.768Z" stroke="#1C186C" stroke-width="4.63957" stroke-linecap="round" stroke-linejoin="round"/>
<path d="M411.639 265.487C412.4 266.386 412.946 267.606 414.371 267.606C415.796 267.606 416.342 266.386 417.103 265.487" stroke="#1C186C" stroke-width="4.63957" stroke-linecap="round" stroke-linejoin="round"/>
<path d="M429.965 265.487C430.726 266.386 431.272 267.606 432.697 267.606C434.141 267.606 434.688 266.386 435.449 265.487" stroke="#1C186C" stroke-width="4.63957" stroke-linecap="round" stroke-linejoin="round"/>
<path d="M441.889 267.584C440.465 267.584 439.918 266.364 439.157 265.465" stroke="#1C186C" stroke-width="4.63957" stroke-linecap="round" stroke-linejoin="round"/>
<path d="M420.812 265.487C421.573 266.386 422.119 267.606 423.544 267.606C424.968 267.606 425.515 266.386 426.276 265.487" stroke="#1C186C" stroke-width="4.63957" stroke-linecap="round" stroke-linejoin="round"/>
<path d="M1108.12 21.2748H1088.61C1085.13 21.2748 1082.32 18.193 1082.32 14.3835V10.2744H1114.41V14.3835C1114.41 18.193 1111.6 21.2748 1108.12 21.2748Z" stroke="#1C186C" stroke-width="4.63957" stroke-linecap="round" stroke-linejoin="round"/>
<path d="M1113.41 3.68164H1083.32C1081.66 3.68164 1080.31 5.15834 1080.31 6.97747C1080.31 8.7966 1081.66 10.2733 1083.32 10.2733H1113.41C1115.07 10.2733 1116.42 8.7966 1116.42 6.97747C1116.42 5.15834 1115.07 3.68164 1113.41 3.68164Z" stroke="#1C186C" stroke-width="4.63957" stroke-linecap="round" stroke-linejoin="round"/>
<path d="M1099.4 -13.9102H1097.33C1089.04 -13.9102 1082.32 -6.54804 1082.32 2.5476V3.68188H1114.41V2.5476C1114.41 -6.54804 1107.7 -13.9102 1099.4 -13.9102Z" stroke="#1C186C" stroke-width="4.63957" stroke-linecap="round" stroke-linejoin="round"/>
<path d="M1082.11 10.8081C1082.87 11.707 1083.42 12.9269 1084.84 12.9269C1086.27 12.9269 1086.81 11.707 1087.58 10.8081" stroke="#1C186C" stroke-width="4.63957" stroke-linecap="round" stroke-linejoin="round"/>
<path d="M1100.44 10.8081C1101.2 11.707 1101.74 12.9269 1103.17 12.9269C1104.61 12.9269 1105.16 11.707 1105.92 10.8081" stroke="#1C186C" stroke-width="4.63957" stroke-linecap="round" stroke-linejoin="round"/>
<path d="M1112.36 12.9063C1110.94 12.9063 1110.39 11.6865 1109.63 10.7876" stroke="#1C186C" stroke-width="4.63957" stroke-linecap="round" stroke-linejoin="round"/>
<path d="M1091.28 10.8081C1092.05 11.707 1092.59 12.9269 1094.02 12.9269C1095.44 12.9269 1095.99 11.707 1096.75 10.8081" stroke="#1C186C" stroke-width="4.63957" stroke-linecap="round" stroke-linejoin="round"/>
<path d="M1035.92 288.792H1016.4C1012.93 288.792 1010.12 285.71 1010.12 281.901V277.792H1042.2V281.901C1042.2 285.71 1039.39 288.792 1035.92 288.792Z" stroke="#1C186C" stroke-width="4.63957" stroke-linecap="round" stroke-linejoin="round"/>
<path d="M1041.21 271.2H1011.11C1009.46 271.2 1008.11 272.677 1008.11 274.496C1008.11 276.315 1009.46 277.792 1011.11 277.792H1041.21C1042.87 277.792 1044.21 276.315 1044.21 274.496C1044.21 272.677 1042.87 271.2 1041.21 271.2Z" stroke="#1C186C" stroke-width="4.63957" stroke-linecap="round" stroke-linejoin="round"/>
<path d="M1027.19 253.607H1025.13C1016.83 253.607 1010.12 260.97 1010.12 270.065V271.199H1042.2V270.065C1042.2 260.97 1035.49 253.607 1027.19 253.607Z" stroke="#1C186C" stroke-width="4.63957" stroke-linecap="round" stroke-linejoin="round"/>
<path d="M1009.9 278.326C1010.66 279.225 1011.21 280.445 1012.64 280.445C1014.06 280.445 1014.61 279.225 1015.37 278.326" stroke="#1C186C" stroke-width="4.63957" stroke-linecap="round" stroke-linejoin="round"/>
<path d="M1028.23 278.326C1028.99 279.225 1029.54 280.445 1030.96 280.445C1032.4 280.445 1032.95 279.225 1033.71 278.326" stroke="#1C186C" stroke-width="4.63957" stroke-linecap="round" stroke-linejoin="round"/>
<path d="M1040.15 280.423C1038.73 280.423 1038.18 279.204 1037.42 278.305" stroke="#1C186C" stroke-width="4.63957" stroke-linecap="round" stroke-linejoin="round"/>
<path d="M1019.08 278.326C1019.84 279.225 1020.38 280.445 1021.81 280.445C1023.23 280.445 1023.78 279.225 1024.54 278.326" stroke="#1C186C" stroke-width="4.63957" stroke-linecap="round" stroke-linejoin="round"/>
</g>
<g opacity="0.25">
<path d="M248.773 270.944C252.661 267.182 257.953 264.898 263.788 264.947C269.584 264.996 274.87 267.334 278.809 271.148" stroke="#1C186C" stroke-width="4.63957" stroke-linecap="round" stroke-linejoin="round"/>
<path d="M277.881 262.309C273.688 259.522 268.869 257.933 263.756 257.885C257.764 257.836 252.2 259.927 247.571 263.561C245.696 265.035 245.165 267.924 246.373 270.151L247.639 272.485L252.879 281.993C252.879 281.993 256.599 288.76 260.105 295.141C261.8 298.225 265.742 298.272 267.424 295.235L279.938 272.691L281.17 270.467C282.383 268.264 281.839 265.331 279.928 263.831C279.285 263.274 278.583 262.781 277.881 262.309Z" stroke="#1C186C" stroke-width="4.63957" stroke-linecap="round" stroke-linejoin="round"/>
<path d="M270.742 275.399C271.211 275.613 271.738 275.614 272.206 275.4C272.46 275.293 272.655 275.144 272.851 274.951C273.202 274.545 273.418 274.01 273.418 273.454C273.419 272.876 273.224 272.362 272.854 271.955C272.484 271.548 272.015 271.334 271.488 271.333C270.962 271.333 270.493 271.546 270.122 271.952C269.75 272.359 269.555 272.893 269.554 273.45C269.553 274.006 269.768 274.542 270.118 274.949C270.294 275.163 270.508 275.313 270.742 275.399Z" fill="#201D67"/>
<path d="M263.056 273.293C263.524 273.508 264.051 273.508 264.52 273.295C264.754 273.188 264.969 273.038 265.164 272.846C265.516 272.44 265.731 271.905 265.732 271.348C265.732 270.771 265.538 270.257 265.167 269.85C264.797 269.443 264.329 269.228 263.802 269.228C263.275 269.227 262.806 269.441 262.435 269.847C262.064 270.253 261.868 270.766 261.868 271.344C261.867 271.901 262.081 272.436 262.432 272.843C262.607 273.036 262.802 273.186 263.056 273.293Z" fill="#201D67"/>
<path d="M254.699 274.954C255.421 275.746 256.709 275.748 257.432 274.957C257.783 274.551 257.999 274.016 257.999 273.459C258 272.881 257.805 272.368 257.435 271.961C257.065 271.554 256.596 271.339 256.07 271.338C255.816 271.338 255.562 271.402 255.347 271.509C255.113 271.616 254.898 271.765 254.703 271.958C254.331 272.364 254.136 272.877 254.135 273.455C254.154 273.99 254.368 274.547 254.699 274.954Z" fill="#201D67"/>
<path d="M258.146 282.705C258.243 282.984 258.38 283.198 258.555 283.412C259.276 284.204 260.564 284.206 261.287 283.415C261.463 283.201 261.6 282.987 261.698 282.709C261.796 282.452 261.855 282.174 261.855 281.917C261.855 281.639 261.797 281.361 261.7 281.125C261.602 280.868 261.466 280.633 261.29 280.419C260.92 280.012 260.452 279.797 259.925 279.796C259.671 279.796 259.417 279.86 259.203 279.967C258.968 280.074 258.754 280.223 258.558 280.416C258.187 280.822 257.991 281.335 257.991 281.913C257.99 282.17 258.049 282.448 258.146 282.705Z" fill="#201D67"/>
<path d="M265.855 282.713C265.952 282.97 266.089 283.206 266.264 283.42C267.005 284.213 268.293 284.214 268.996 283.423C269.172 283.209 269.309 282.995 269.407 282.717C269.505 282.461 269.563 282.182 269.564 281.926C269.564 281.348 269.37 280.834 268.999 280.427C268.804 280.234 268.59 280.084 268.356 279.977C268.122 279.87 267.868 279.805 267.614 279.805C267.087 279.804 266.619 280.018 266.248 280.424C266.072 280.638 265.935 280.873 265.837 281.13C265.72 281.386 265.68 281.665 265.68 281.921C265.699 282.178 265.738 282.457 265.855 282.713Z" fill="#201D67"/>
<path d="M184.619 207.25C185.872 207.556 187.176 207.514 188.41 207.127C189.645 206.739 190.771 206.019 191.687 205.031C192.075 204.593 192.292 204.006 192.292 203.395C192.293 202.784 192.077 202.197 191.69 201.757L189.468 199.229" stroke="#1C186C" stroke-width="4.63957" stroke-linecap="round" stroke-linejoin="round"/>
<path d="M170.078 190.99C169.811 189.598 169.865 188.155 170.235 186.792C170.604 185.429 171.278 184.187 172.194 183.181C172.388 182.966 172.62 182.796 172.874 182.68C173.129 182.564 173.402 182.504 173.678 182.504C173.954 182.505 174.227 182.565 174.481 182.682C174.736 182.798 174.967 182.969 175.161 183.184L177.422 185.712" stroke="#1C186C" stroke-width="4.63957" stroke-linecap="round" stroke-linejoin="round"/>
<path d="M187.941 185.21C187.137 183.813 186.713 182.194 186.716 180.543C186.718 179.428 186.921 178.325 187.314 177.296C187.707 176.268 188.282 175.336 189.006 174.553C189.143 174.418 189.32 174.343 189.504 174.343C189.688 174.343 189.865 174.418 190.001 174.554C190.639 175.263 191.148 176.099 191.501 177.017C191.823 177.688 192.047 178.41 192.163 179.158C192.207 179.613 192.206 180.072 192.161 180.527C191.808 182.608 190.839 184.503 189.404 185.917C190.734 184.385 192.481 183.366 194.383 183.012C194.799 182.969 195.217 182.97 195.632 183.014C196.315 183.16 196.973 183.421 197.583 183.786C198.423 184.224 199.177 184.835 199.806 185.586C199.929 185.736 199.998 185.93 199.997 186.132C199.997 186.334 199.929 186.528 199.805 186.678C198.343 188.242 196.38 189.116 194.338 189.112C192.84 189.099 191.377 188.615 190.124 187.716" stroke="#1C186C" stroke-width="4.63957" stroke-linecap="round" stroke-linejoin="round"/>
<path d="M165.527 211.959C165.758 212.249 166.02 212.508 166.307 212.73C167.109 213.292 168.005 213.673 168.943 213.85C169.882 214.028 170.843 213.998 171.77 213.763C173.962 213.403 176.078 212.615 178.018 211.437C181.665 209.511 184.73 206.476 186.849 202.694C188.728 198.891 189.794 194.669 189.965 190.348C189.965 190.049 190.299 187.802 190.085 187.652L187.921 185.21C187.785 184.974 185.755 185.207 185.482 185.314C181.522 185.423 177.639 186.54 174.139 188.576C170.667 190.82 167.869 194.127 166.088 198.091C164.367 202.006 162.408 208.232 165.527 211.959Z" stroke="#1C186C" stroke-width="4.63957" stroke-linecap="round" stroke-linejoin="round"/>
<path d="M179.114 209.49C178.326 206.569 176.902 203.901 174.966 201.717C173.021 199.538 170.616 197.918 167.964 197.001" stroke="#1C186C" stroke-width="4.63957" stroke-linecap="round" stroke-linejoin="round"/>
<path d="M170.681 209.418C170.863 209.625 171.081 209.79 171.322 209.903C171.564 210.016 171.823 210.074 172.085 210.074C172.348 210.074 172.608 210.017 172.849 209.904C173.091 209.792 173.309 209.628 173.491 209.421C173.757 209.119 173.937 208.737 174.007 208.324C174.077 207.912 174.034 207.485 173.885 207.099C173.735 206.712 173.486 206.382 173.166 206.15C172.847 205.918 172.473 205.794 172.09 205.794C171.707 205.793 171.333 205.917 171.013 206.148C170.693 206.379 170.443 206.709 170.293 207.095C170.142 207.481 170.099 207.907 170.168 208.32C170.237 208.733 170.416 209.115 170.681 209.418V209.418Z" fill="#201D67"/>
<path d="M82.0019 296.941L102.01 275.047C104.14 272.716 104.144 268.95 102.019 266.615C99.8944 264.28 96.4595 264.276 94.3298 266.607L74.3216 288.5C72.1919 290.831 72.1878 294.597 74.3126 296.932C76.4373 299.267 79.8722 299.271 82.0019 296.941Z" stroke="#1C186C" stroke-width="4.63957" stroke-linecap="round" stroke-linejoin="round"/>
<path d="M97.8177 272.132C95.512 274.655 94.6933 273.755 92.3682 276.278C90.0626 278.801 90.8813 279.701 88.5756 282.245C86.27 284.768 85.4318 283.868 83.1262 286.391C80.8205 288.914 81.6392 289.835 79.3336 292.358" stroke="#1C186C" stroke-width="4.63957" stroke-linecap="round" stroke-linejoin="round"/>
<path d="M88.9082 299.473L104.305 282.625C106.865 279.824 106.87 275.309 104.316 272.502L79.6966 299.442C82.2306 302.27 86.3681 302.274 88.9082 299.473Z" stroke="#1C186C" stroke-width="4.63957" stroke-linecap="round" stroke-linejoin="round"/>
<path d="M87.4238 264.074L72.0269 280.922C69.4673 283.723 69.4625 288.239 72.0161 291.045L96.6354 264.105C94.1014 261.278 89.9639 261.273 87.4238 264.074Z" stroke="#1C186C" stroke-width="4.63957" stroke-linecap="round" stroke-linejoin="round"/>
<path d="M357.889 61.3258C361.776 57.5633 367.068 55.279 372.903 55.3281C378.699 55.3772 383.986 57.7156 387.924 61.5293" stroke="#1C186C" stroke-width="4.63957" stroke-linecap="round" stroke-linejoin="round"/>
<path d="M386.996 52.6894C382.803 49.9027 377.984 48.3138 372.871 48.2655C366.88 48.2163 361.315 50.3077 356.686 53.9409C354.811 55.4156 354.281 58.3043 355.488 60.5313L356.754 62.8654L361.994 72.3733C361.994 72.3733 365.714 79.1402 369.22 85.5216C370.915 88.6053 374.857 88.6523 376.539 85.6151L389.053 63.0714L390.285 60.8469C391.498 58.6439 390.954 55.7113 389.043 54.2111C388.4 53.654 387.698 53.161 386.996 52.6894Z" stroke="#1C186C" stroke-width="4.63957" stroke-linecap="round" stroke-linejoin="round"/>
<path d="M379.859 65.7814C380.327 65.996 380.854 65.9965 381.322 65.783C381.576 65.6763 381.772 65.5267 381.967 65.3343C382.319 64.928 382.534 64.3932 382.534 63.8368C382.535 63.259 382.34 62.7451 381.97 62.3381C381.6 61.9311 381.132 61.7165 380.605 61.716C380.078 61.7154 379.609 61.9289 379.238 62.3352C378.867 62.7414 378.671 63.2762 378.67 63.8326C378.67 64.3891 378.884 64.9243 379.235 65.3314C379.41 65.5456 379.625 65.6956 379.859 65.7814Z" fill="#201D67"/>
<path d="M372.172 63.6745C372.64 63.889 373.167 63.8896 373.636 63.6761C373.87 63.5693 374.085 63.4198 374.28 63.2274C374.632 62.8211 374.847 62.2863 374.848 61.7298C374.849 61.152 374.654 60.6382 374.284 60.2311C373.913 59.8241 373.445 59.6096 372.918 59.609C372.391 59.6085 371.923 59.822 371.551 60.2282C371.18 60.6344 370.984 61.1478 370.984 61.7257C370.983 62.2821 371.197 62.8174 371.548 63.2244C371.724 63.4172 371.919 63.5672 372.172 63.6745Z" fill="#201D67"/>
<path d="M363.818 65.3366C364.539 66.1293 365.827 66.1307 366.55 65.3396C366.902 64.9333 367.117 64.3985 367.117 63.8421C367.118 63.2643 366.924 62.7504 366.553 62.3434C366.183 61.9364 365.715 61.7218 365.188 61.7213C364.934 61.721 364.68 61.7849 364.465 61.8917C364.231 61.9985 364.016 62.148 363.821 62.3405C363.45 62.7467 363.254 63.2601 363.253 63.8379C363.272 64.373 363.486 64.9297 363.818 65.3366Z" fill="#201D67"/>
<path d="M367.263 73.086C367.36 73.3644 367.497 73.5785 367.672 73.7927C368.393 74.5853 369.681 74.5867 370.404 73.7956C370.58 73.5818 370.717 73.368 370.815 73.0899C370.913 72.8331 370.972 72.555 370.972 72.2981C370.972 72.0199 370.914 71.7417 370.817 71.5061C370.719 71.2492 370.583 71.0136 370.408 70.7994C370.037 70.3924 369.569 70.1779 369.042 70.1773C368.788 70.1771 368.535 70.241 368.32 70.3478C368.086 70.4545 367.871 70.6041 367.675 70.7965C367.304 71.2027 367.108 71.7162 367.108 72.294C367.107 72.5508 367.166 72.8291 367.263 73.086Z" fill="#201D67"/>
<path d="M374.973 73.0943C375.07 73.3513 375.207 73.5868 375.382 73.801C376.123 74.5937 377.411 74.595 378.114 73.8039C378.29 73.5901 378.427 73.3763 378.525 73.0982C378.623 72.8414 378.682 72.5633 378.682 72.3064C378.683 71.7286 378.488 71.2148 378.118 70.8077C377.923 70.6149 377.708 70.4649 377.474 70.3576C377.24 70.2504 376.986 70.1859 376.733 70.1856C376.206 70.1851 375.737 70.3986 375.366 70.8048C375.19 71.0186 375.053 71.2539 374.955 71.5106C374.838 71.7673 374.798 72.0455 374.798 72.3023C374.817 72.5591 374.856 72.8374 374.973 73.0943Z" fill="#201D67"/>
<path d="M374.244 79.2367C373.873 78.8297 373.405 78.6152 372.878 78.6146C372.624 78.6143 372.371 78.6783 372.156 78.7851C371.922 78.8918 371.707 79.0414 371.511 79.2338C371.335 79.4476 371.199 79.6829 371.101 79.9396C371.003 80.1963 370.944 80.4745 370.944 80.7313C370.943 81.3091 371.157 81.823 371.508 82.23C372.054 82.8084 372.893 83.0234 373.615 82.6817C373.869 82.575 374.065 82.4254 374.26 82.233C374.612 81.8267 374.827 81.2919 374.827 80.7355C374.828 80.4573 374.77 80.179 374.672 79.9435C374.555 79.6865 374.419 79.4509 374.244 79.2367Z" fill="#201D67"/>
<path d="M278.488 28.5924C279.742 28.8991 281.045 28.8567 282.279 28.4693C283.514 28.0818 284.64 27.3616 285.556 26.3742C285.944 25.9356 286.161 25.3487 286.162 24.7377C286.162 24.1266 285.946 23.5393 285.559 23.0998L283.337 20.572" stroke="#1C186C" stroke-width="4.63957" stroke-linecap="round" stroke-linejoin="round"/>
<path d="M263.947 12.3339C263.68 10.942 263.734 9.49919 264.104 8.13575C264.473 6.7723 265.147 5.53121 266.063 4.52464C266.258 4.31002 266.489 4.13974 266.744 4.02364C266.998 3.90754 267.271 3.84792 267.547 3.84822C267.823 3.84851 268.096 3.90872 268.35 4.02537C268.605 4.14201 268.836 4.31279 269.03 4.52782L271.291 7.05563" stroke="#1C186C" stroke-width="4.63957" stroke-linecap="round" stroke-linejoin="round"/>
<path d="M281.81 6.5529C281.006 5.15614 280.582 3.5376 280.585 1.88606C280.587 0.771289 280.79 -0.332091 281.183 -1.36025C281.576 -2.38841 282.151 -3.32095 282.875 -4.1039C283.012 -4.23911 283.189 -4.31387 283.373 -4.31367C283.557 -4.31347 283.734 -4.23833 283.871 -4.10283C284.508 -3.39336 285.017 -2.55766 285.371 -1.64005C285.693 -0.969141 285.916 -0.246595 286.032 0.500814C286.076 0.956121 286.075 1.4153 286.03 1.87051C285.677 3.95109 284.708 5.84586 283.273 7.26073C284.603 5.7284 286.35 4.70923 288.253 4.35547C288.668 4.3126 289.086 4.31305 289.502 4.35682C290.184 4.5036 290.842 4.76414 291.452 5.12937C292.292 5.56731 293.047 6.17848 293.675 6.92948C293.799 7.07916 293.867 7.27373 293.866 7.47543C293.866 7.67712 293.798 7.87155 293.674 8.02096C292.212 9.58524 290.249 10.459 288.207 10.4549C286.709 10.4426 285.246 9.95814 283.993 9.05923" stroke="#1C186C" stroke-width="4.63957" stroke-linecap="round" stroke-linejoin="round"/>
<path d="M259.396 33.3018C259.627 33.5922 259.889 33.8512 260.176 34.0731C260.978 34.6348 261.875 35.0155 262.813 35.1929C263.751 35.3703 264.712 35.3408 265.639 35.1063C267.832 34.7454 269.947 33.9576 271.887 32.7802C275.534 30.8538 278.599 27.8187 280.718 24.0365C282.597 20.2337 283.663 16.012 283.834 11.6912C283.834 11.3915 284.169 9.14474 283.954 8.9947L281.79 6.5526C281.654 6.31703 279.624 6.55027 279.351 6.65698C275.391 6.76617 271.508 7.88295 268.008 9.91922C264.536 12.1626 261.738 15.4699 259.957 19.4342C258.236 23.3489 256.277 29.5746 259.396 33.3018Z" stroke="#1C186C" stroke-width="4.63957" stroke-linecap="round" stroke-linejoin="round"/>
<path d="M272.982 30.8335C272.194 27.9121 270.77 25.2446 268.834 23.0603C266.889 20.8813 264.484 19.2616 261.833 18.3444" stroke="#1C186C" stroke-width="4.63957" stroke-linecap="round" stroke-linejoin="round"/>
<path d="M264.55 30.7599C264.732 30.9672 264.95 31.1322 265.191 31.245C265.433 31.3578 265.692 31.4161 265.955 31.4164C266.217 31.4166 266.477 31.3589 266.718 31.2467C266.96 31.1344 267.178 30.9699 267.361 30.7629C267.627 30.4609 267.806 30.0797 267.876 29.6668C267.946 29.2539 267.903 28.8276 267.754 28.441C267.605 28.0544 267.355 27.7245 267.036 27.4924C266.717 27.2604 266.342 27.1365 265.959 27.1361C265.576 27.1357 265.202 27.2588 264.882 27.4901C264.562 27.7215 264.312 28.0508 264.162 28.4371C264.012 28.8234 263.968 29.2496 264.037 29.6627C264.106 30.0757 264.285 30.4573 264.55 30.7599V30.7599Z" fill="#201D67"/>
<path d="M80.8516 24.6763L72.8564 0.46257L64.8093 24.659" stroke="#1C186C" stroke-width="4.63957" stroke-linecap="round" stroke-linejoin="round"/>
<path d="M60.7862 25.7466C61.118 25.7469 61.4107 25.7258 61.684 25.6833C63.8312 25.3004 64.1258 23.5458 66.819 23.5487C69.8441 23.552 69.8417 25.7563 72.8277 25.7595C75.8527 25.7628 75.855 23.5584 78.841 23.5616C81.5343 23.5645 81.8056 25.2983 83.9715 25.7073C84.2251 25.7504 84.5374 25.7721 84.8691 25.7725" stroke="#1C186C" stroke-width="4.63957" stroke-linecap="round" stroke-linejoin="round"/>
<path d="M62.792 29.0445C62.7932 27.8888 62.9506 26.7333 63.2835 25.685C65.1379 25.3017 65.374 23.5471 67.6769 23.5495C70.2726 23.5523 70.2702 25.7567 72.8268 25.7594C75.4225 25.7622 75.4248 23.5579 77.9815 23.5606C80.2844 23.5631 80.5362 25.2969 82.3703 25.7055C82.6814 26.7545 82.8558 27.9104 82.8546 29.066C82.8481 35.1441 78.3541 40.0616 72.8115 40.0556C67.2689 40.0497 62.7854 35.1225 62.792 29.0445Z" stroke="#1C186C" stroke-width="4.63957" stroke-linecap="round" stroke-linejoin="round"/>
<path d="M62.7997 22.454L82.8623 22.4756" stroke="#1C186C" stroke-width="4.63957" stroke-linecap="round" stroke-linejoin="round"/>
<path d="M101.968 166.69C96.5622 166.32 91.159 163.725 86.8901 158.969C82.6601 154.256 80.3441 148.261 79.9993 142.269" stroke="#1C186C" stroke-width="4.63957" stroke-linecap="round" stroke-linejoin="round"/>
<path d="M77.7784 140.876L80.1795 140.236L104.543 133.735C107.822 132.861 110.688 136.074 109.864 139.712L108.139 147.414L108.021 147.906L106.511 154.603L106.374 155.245L103.824 166.478L103.197 169.217C102.609 171.849 100.284 173.537 97.9039 173.106C92.0502 172.051 86.5498 169.092 82.1639 164.208C77.7975 159.366 75.1694 153.264 74.2201 146.779C73.8326 144.124 75.3967 141.515 77.7784 140.876Z" stroke="#1C186C" stroke-width="4.63957" stroke-linecap="round" stroke-linejoin="round"/>
<path d="M92.4854 147.738C90.7609 147.736 89.3612 149.287 89.3591 151.202C89.3571 153.117 90.7534 154.671 92.478 154.672C94.2025 154.674 95.6023 153.124 95.6043 151.209C95.6064 149.294 94.21 147.74 92.4854 147.738Z" stroke="#1C186C" stroke-width="4.63957" stroke-linecap="round" stroke-linejoin="round"/>
<path d="M104.037 149.058C105.111 147.861 106.654 147.477 108.019 147.949L106.058 156.679C105.317 156.486 104.615 156.1 104.03 155.457C102.431 153.679 102.434 150.811 104.037 149.058Z" stroke="#1C186C" stroke-width="4.63957" stroke-linecap="round" stroke-linejoin="round"/>
<path d="M101.591 136.855C101.883 138.096 101.588 139.466 100.729 140.428C99.4195 141.882 97.3118 141.88 96.0058 140.423C95.5769 139.952 95.2848 139.373 95.1488 138.753" stroke="#1C186C" stroke-width="4.63957" stroke-linecap="round" stroke-linejoin="round"/>
<path d="M175.904 87.3058L195.912 65.4122C198.042 63.0817 198.046 59.3151 195.921 56.98C193.797 54.645 190.362 54.6413 188.232 56.9718L168.224 78.8654C166.094 81.1959 166.09 84.9625 168.215 87.2976C170.34 89.6326 173.775 89.6363 175.904 87.3058Z" stroke="#1C186C" stroke-width="4.63957" stroke-linecap="round" stroke-linejoin="round"/>
<path d="M191.72 62.4969C189.414 65.0198 188.596 64.12 186.271 66.6429C183.965 69.1658 184.784 70.0655 182.478 72.6099C180.172 75.1328 179.334 74.233 177.028 76.7559C174.723 79.2788 175.542 80.1999 173.236 82.7228" stroke="#1C186C" stroke-width="4.63957" stroke-linecap="round" stroke-linejoin="round"/>
<path d="M182.811 89.8394L198.207 72.9915C200.767 70.1907 200.772 65.675 198.218 62.8686L173.599 89.8081C176.133 92.6358 180.27 92.6403 182.811 89.8394Z" stroke="#1C186C" stroke-width="4.63957" stroke-linecap="round" stroke-linejoin="round"/>
<path d="M181.327 54.4393L165.93 71.2872C163.371 74.088 163.366 78.6037 165.919 81.4101L190.539 54.4706C188.005 51.6429 183.867 51.6385 181.327 54.4393Z" stroke="#1C186C" stroke-width="4.63957" stroke-linecap="round" stroke-linejoin="round"/>
<path d="M279.582 135.976L299.098 135.997C302.572 136.001 305.379 139.086 305.375 142.895L305.37 147.004L273.286 146.97L273.29 142.861C273.294 139.051 276.108 135.973 279.582 135.976Z" stroke="#1C186C" stroke-width="4.63957" stroke-linecap="round" stroke-linejoin="round"/>
<path d="M274.275 153.564L304.369 153.596C306.027 153.598 307.376 152.122 307.378 150.303C307.38 148.484 306.034 147.006 304.376 147.004L274.282 146.972C272.623 146.97 271.275 148.445 271.273 150.264C271.271 152.084 272.616 153.562 274.275 153.564Z" stroke="#1C186C" stroke-width="4.63957" stroke-linecap="round" stroke-linejoin="round"/>
<path d="M288.267 171.17L290.336 171.172C298.63 171.181 305.352 163.826 305.361 154.731L305.363 153.596L273.278 153.562L273.277 154.696C273.267 163.792 279.973 171.161 288.267 171.17Z" stroke="#1C186C" stroke-width="4.63957" stroke-linecap="round" stroke-linejoin="round"/>
<path d="M305.586 146.47C304.826 145.571 304.281 144.35 302.856 144.349C301.431 144.347 300.884 145.566 300.121 146.464" stroke="#1C186C" stroke-width="4.63957" stroke-linecap="round" stroke-linejoin="round"/>
<path d="M287.26 146.451C286.5 145.551 285.954 144.331 284.53 144.329C283.086 144.327 282.538 145.547 281.776 146.445" stroke="#1C186C" stroke-width="4.63957" stroke-linecap="round" stroke-linejoin="round"/>
<path d="M275.337 144.34C276.762 144.342 277.307 145.562 278.067 146.462" stroke="#1C186C" stroke-width="4.63957" stroke-linecap="round" stroke-linejoin="round"/>
<path d="M296.413 146.46C295.653 145.561 295.108 144.34 293.683 144.339C292.258 144.337 291.711 145.557 290.949 146.455" stroke="#1C186C" stroke-width="4.63957" stroke-linecap="round" stroke-linejoin="round"/>
</g>
</svg>
