<svg width="119" height="174" viewBox="0 0 119 174" fill="none" xmlns="http://www.w3.org/2000/svg">
<path d="M51.6734 111.862C58.1698 121.586 61.8794 132.7 58.1294 144.064C54.7445 154.321 45.5194 160.397 34.9256 152.787C29.9107 149.185 26.6564 141.914 29.9147 136.513C33.5447 130.495 41.6009 135.826 43.7864 139.922C48.891 149.487 45.5838 162.385 34.354 168.212C21.0553 175.112 15.3318 161.922 15.4369 161.919" stroke="#665AB5" stroke-width="1.88444" stroke-miterlimit="1.5" stroke-linecap="round" stroke-linejoin="round"/>
<path d="M91.0438 9.58437C93.6069 6.96733 96.7491 6.53093 99.9362 6.23753C103.914 5.8713 107.962 5.72781 111.041 1.84468" stroke="#685BB8" stroke-width="1.88444" stroke-miterlimit="1.5" stroke-linecap="round" stroke-linejoin="round"/>
<path d="M90.0496 16.9406C92.3851 13.6174 95.7821 11.6536 99.7944 11.2109C101.894 10.9794 104.023 11.2099 106.109 10.8135C110.809 9.9201 115.175 7.06715 117.222 2.65504" stroke="#685BB8" stroke-width="1.88444" stroke-miterlimit="1.5" stroke-linecap="round" stroke-linejoin="round"/>
<path d="M110.589 14.0893C109.033 15.087 107.345 15.8468 105.49 16.0647C101.797 16.4986 97.9287 15.9227 95.1247 18.911" stroke="#685BB8" stroke-width="1.88444" stroke-miterlimit="1.5" stroke-linecap="round" stroke-linejoin="round"/>
</svg>
