<svg width="33" height="31" viewBox="0 0 33 31" fill="none" xmlns="http://www.w3.org/2000/svg">
<rect x="2.87891" y="4.07324" width="30.0568" height="26.5505" rx="4.9561" fill="#6C5FBC"/>
<path d="M10.1777 1.25024H20.4102C22.7667 1.25024 24.4621 1.25151 25.7529 1.42505C27.023 1.59581 27.7938 1.921 28.3643 2.49146C28.9347 3.06193 29.2599 3.83271 29.4307 5.10278C29.6042 6.39355 29.6064 8.08902 29.6064 10.4456V17.1721C29.6064 19.5285 29.6042 21.2242 29.4307 22.5149C29.2599 23.7848 28.9347 24.5558 28.3643 25.1262C27.7938 25.6966 27.0229 26.0219 25.7529 26.1926C24.4622 26.3662 22.7667 26.3674 20.4102 26.3674H10.1777C7.8212 26.3674 6.12572 26.3662 4.83496 26.1926C3.56496 26.0219 2.7941 25.6966 2.22363 25.1262C1.65319 24.5558 1.32801 23.7848 1.15723 22.5149C0.983695 21.2242 0.982422 19.5285 0.982422 17.1721V10.4456C0.982422 8.08902 0.983688 6.39355 1.15723 5.10278C1.328 3.8327 1.65315 3.06193 2.22363 2.49146C2.79411 1.92098 3.56488 1.59582 4.83496 1.42505C6.12572 1.25151 7.8212 1.25024 10.1777 1.25024Z" fill="#DBD9EE" stroke="#6C5FBC" stroke-width="1.43288"/>
<path d="M23.4648 9.10547L7.17926 9.03346" stroke="#6C5FBC" stroke-width="1.48218" stroke-linecap="round" stroke-linejoin="round"/>
<path d="M23.4546 12.3664L19.8322 12.3504C18.3339 12.3438 17.1221 10.8772 17.1276 9.07718C17.1331 7.27716 18.3539 5.82135 19.8522 5.82798L23.4746 5.84399" stroke="#6C5FBC" stroke-width="1.48218" stroke-linecap="round" stroke-linejoin="round"/>
<path d="M12.606 19.537L7.87341 19.4843C7.48563 19.4825 7.16071 19.0999 7.15332 18.634L7.12183 17.4057C7.11451 16.9186 7.44186 16.5072 7.84727 16.5089L12.527 16.5614L12.606 19.537Z" stroke="#6C5FBC" stroke-width="1.48218" stroke-linecap="round" stroke-linejoin="round"/>
<path d="M20.0397 21.3078L13.3503 21.2253C12.9625 21.2236 12.6376 20.841 12.6302 20.3751L12.5449 16.5522L23.412 16.685L23.4193 17.1721C23.4739 19.4806 21.9522 21.3375 20.0397 21.3078Z" stroke="#6C5FBC" stroke-width="1.48218" stroke-linecap="round" stroke-linejoin="round"/>
</svg>
