<svg width="128" height="221" viewBox="0 0 128 221" fill="none" xmlns="http://www.w3.org/2000/svg">
<path opacity="0.2" d="M250.547 -80.8447C227.068 -78.6528 201.569 -78.3091 178.691 -73.183C156.305 -68.1671 132.729 -59.0673 113.033 -49.4564C76.737 -31.7454 58.1474 -6.95103 41.2821 22.6297C13.4496 71.4467 3.3729 122.078 2.93791 175.123C2.64995 210.239 3.99988 244.997 7.66528 279.998C8.78437 290.684 8.22504 302.9 16.0695 312.128M298.001 -55.6355C273.819 -53.3774 247.556 -53.0233 223.993 -47.7425C200.937 -42.5751 176.656 -33.2006 156.37 -23.2996C118.987 -5.05393 99.8407 20.4889 82.4705 50.9627C53.8046 101.253 43.4262 153.414 42.9782 208.059C42.6816 244.235 44.072 280.043 47.8471 316.1C48.9997 327.109 48.4236 339.694 56.503 349.2" stroke="#A596FF" stroke-width="4.44874" stroke-linecap="round"/>
</svg>
